<svg xmlns="http://www.w3.org/2000/svg" viewBox="0 0 256 256">
  <defs>
    <linearGradient id="bg" x1="32" y1="24" x2="224" y2="232" gradientUnits="userSpaceOnUse">
      <stop stop-color="#1D4ED8"/>
      <stop offset="1" stop-color="#0F172A"/>
    </linearGradient>
    <linearGradient id="mark" x1="72" y1="60" x2="190" y2="196" gradientUnits="userSpaceOnUse">
      <stop stop-color="#67E8F9"/>
      <stop offset="1" stop-color="#22C55E"/>
    </linearGradient>
  </defs>
  <rect width="256" height="256" rx="52" fill="url(#bg)"/>
  <path d="M81 66c-12 8-20 23-20 42 0 46 41 87 87 87 19 0 34-8 42-20 4-6 3-14-3-19l-21-16c-5-4-12-4-18 0l-12 8c-15-8-27-20-35-35l8-12c4-6 4-13 0-18L93 62c-5-6-13-7-19-3l7 7Z" fill="url(#mark)"/>
  <path d="M151 69c21 6 37 22 43 43" fill="none" stroke="#E0F2FE" stroke-width="13" stroke-linecap="round"/>
  <path d="M145 101c8 3 14 9 17 17" fill="none" stroke="#E0F2FE" stroke-width="13" stroke-linecap="round"/>
</svg>
